# AST/ASF file generated using VICON BodyLanguage
# -----------------------------------------------
:version 1.10
:name VICON
:units
  mass 1.0
  length 0.45
  angle deg
:documentation
   .ast/.asf automatically generated from VICON data using
   VICON BodyBuilder and BodyLanguage model FoxedUp or BRILLIANT.MOD
:root
   order TX TY TZ RX RY RZ
   axis XYZ
   position 0 0 0  
   orientation 0 0 0 
:bonedata
  begin
     id 1 
     name lhipjoint
     direction 0.625129 -0.738222 0.253461 
     length 2.5165 
     axis 0 0 0  XYZ
  end
  begin
     id 2 
     name lfemur
     direction 0.34202 -0.939693 0  
     length 7.54288  
     axis 0 0 20  XYZ
    dof rx ry rz
    limits (-160.0 20.0)
           (-70.0 70.0)
           (-60.0 70.0)
  end
  begin
     id 3 
     name ltibia
     direction 0.34202 -0.939693 0   
     length 7.71864   
     axis 0 0 20   XYZ
    dof rx
    limits (-10.0 170.0)
  end
  begin
     id 4 
     name lfoot
     direction 0.0772037 -0.212115 0.97419   
     length 2.18429   
     axis -90 7.62852e-016 20   XYZ
    dof rx rz
    limits (-45.0 90.0)
           (-70.0 20.0)
  end
  begin
     id 5 
     name ltoes
     direction 1.53513e-011 -4.21834e-011 1   
     length 1.09718   
     axis -90 7.62852e-016 20   XYZ
    dof rx
    limits (-90.0 20.0)
  end
  begin
     id 6 
     name rhipjoint
     direction -0.621946 -0.740623 0.254285   
     length 2.50835  
     axis 0 0 0  XYZ 
  end
  begin
     id 7 
     name rfemur
     direction -0.34202 -0.939693 0   
     length 7.43366   
     axis 0 0 -20   XYZ
    dof rx ry rz
    limits (-160.0 20.0)
           (-70.0 70.0)
           (-70.0 60.0)
  end
  begin
     id 8 
     name rtibia
     direction -0.34202 -0.939693 0   
     length 7.77122   
     axis 0 0 -20   XYZ
    dof rx
    limits (-10.0 170.0)
 end
 begin
     id 9 
     name rfoot
     direction -0.082694 -0.2272 0.970331   
     length 2.2293  
     axis -90 -7.62852e-016 -20   XYZ
    dof rx rz
    limits (-45.0 90.0)
           (-20.0 70.0)
  end
  begin
     id 10 
     name rtoes
     direction -1.53565e-011 -4.21695e-011 1   
     length 1.1178   
     axis -90 -7.62852e-016 -20   XYZ
    dof rx
    limits (-90.0 20.0)
  end
  begin
     id 11 
     name lowerback
     direction -0.000695208 0.988391 -0.151929   
     length 1.95077   
     axis 0 0 0   XYZ
    dof rx ry rz
    limits (-20.0 45.0)
           (-30.0 30.0)
           (-30.0 30.0)
  end
  begin
     id 12 
     name upperback
     direction -0.00268925 0.999885 -0.0149203   
     length 1.96246   
     axis 0 0 0   XYZ
    dof rx ry rz
    limits (-20.0 45.0)
           (-30.0 30.0)
           (-30.0 30.0)
  end
  begin
     id 13 
     name thorax
     direction -0.000848408 0.998481 0.0550912   
     length 2.00867   
     axis 0 0 0   XYZ
    dof rx ry rz
    limits (-20.0 45.0)
           (-30.0 30.0)
           (-30.0 30.0)
  end
  begin
     id 14 
     name lowerneck
     direction -0.00577709 0.998999 0.0443608   
     length 1.75762   
     axis 0 0 0   XYZ
    dof rx ry rz
    limits (-20.0 45.0)
           (-30.0 30.0)
           (-30.0 30.0)
  end
  begin
     id 15 
     name upperneck
     direction 0.0320945 0.999136 0.0264105   
     length 1.72601   
     axis 0 0 0   XYZ
    dof rx ry rz
    limits (-20.0 45.0)
           (-30.0 30.0)
           (-30.0 30.0)
  end
  begin
     id 16
     name head
     direction 0.0120552 0.999916 0.00480151  
     length 1.79973  
     axis 0 0 0   XYZ
    dof rx ry rz
    limits (-20.0 45.0)
           (-30.0 30.0)
           (-30.0 30.0)
  end
  begin
     id 17 
     name lclavicle
     direction 0.909 0.371533 -0.188897  
     length 3.47956  
     axis 0 0 0   XYZ
    dof ry rz
    limits (-20.0 10.0)
           (0.0 20.0)
  end
  begin
     id 18 
     name lhumerus
     direction 1 -4.48963e-011 -6.48352e-028   
     length 5.52302   
     axis 180 -30 -90   XYZ
    dof rx ry rz
    limits (-60.0 90.0)
           (-90.0 90.0)
           (-90.0 90.0)
  end
  begin
     id 19
     name lradius
     direction 1 -4.48968e-011 -4.78536e-027   
     length 3.58675   
     axis 180 -30 -90   XYZ
    dof rx
    limits (-10.0 170.0)
  end
  begin
     id 20
     name lwrist
     direction 1 -4.48942e-011 -9.9435e-027   
     length 1.79337   
     axis 8.54312e-015 90 90   XYZ
    dof ry
    limits (-180.0 0.0)
 end
  begin
     id 21 
     name lhand
     direction 1 -4.4904e-011 -1.9887e-026   
     length 0.536412   
     axis 1.26896e-014 90 90   XYZ
    dof rx rz
    limits (-90.0 90.0)
           (-45.0 45.0)
  end
  begin
     id 22 
     name lfingers
     direction 1 -4.48893e-011 -3.9774e-026   
     length 0.432469   
     axis 2.53792e-014 90 90   XYZ
    dof rx
    limits (0.0 90.0)
  end
  begin
     id 23
     name lthumb
     direction 0.707107 -6.34934e-011 0.707107   
     length 0.620942   
     axis -90 45 2.85299e-015   XYZ
    dof rx rz
    limits (-45.0 45.0)
           (-45.0 45.0)
  end
  begin
     id 24 
     name rclavicle
     direction -0.89595 0.416672 -0.153813   
     length 3.44099  
     axis 0 0 0   XYZ 
    dof ry rz
    limits (-10.0 20.0)
           (-20.0 0.0)
  end
  begin
     id 25 
     name rhumerus
     direction -1 -4.48952e-011 5.57804e-028  
     length 5.8478   
     axis 180 30 90   XYZ
    dof rx ry rz
    limits (-90.0 60.0)
           (-90.0 90.0)
           (-90.0 90.0)
  end
  begin
     id 26 
     name rradius
     direction -1 -4.48967e-011 -7.93646e-027   
     length 3.62717   
     axis 180 30 90   XYZ
    dof rx
    limits (-10.0 170.0)
  end
  begin
     id 27 
     name rwrist
     direction -1 -4.49008e-011 -9.9435e-027   
     length 1.81359   
     axis 8.54312e-015 -90 -90   XYZ
    dof ry
    limits (-180.0 0.0)
  end
  begin
     id 28
     name rhand
     direction -1 -4.48812e-011 -1.9887e-026   
     length 0.650516   
     axis 1.26896e-014 -90 -90   XYZ
    dof rx rz
    limits (-90.0 90.0)
           (-45.0 45.0)
  end
  begin
     id 29
     name rfingers
     direction -1 -4.49228e-011 -3.9774e-026   
     length 0.524463   
     axis 2.53792e-014 -90 -90   XYZ
    dof rx
    limits (0.0 90.0)
  end
  begin
     id 30
     name rthumb
     direction -0.707107 -6.34912e-011 0.707107   
     length 0.753027   
     axis -90 -45 -2.85299e-015   XYZ
    dof rx rz
    limits (-45.0 45.0)
           (-45.0 45.0)
  end
:hierarchy
  begin
    root lhipjoint rhipjoint lowerback
    lhipjoint lfemur
    lfemur ltibia
    ltibia lfoot
    lfoot ltoes
    rhipjoint rfemur
    rfemur rtibia
    rtibia rfoot
    rfoot rtoes
    lowerback upperback
    upperback thorax
    thorax lowerneck lclavicle rclavicle
    lowerneck upperneck
    upperneck head
    lclavicle lhumerus
    lhumerus lradius
    lradius lwrist
    lwrist lhand lthumb
    lhand lfingers
    rclavicle rhumerus
    rhumerus rradius
    rradius rwrist
    rwrist rhand rthumb
    rhand rfingers
  end

#!OML:ASF F:\VICON\USERDATA\INSTALL\rory3\rory3.ASF
:FULLY-SPECIFIED
:DEGREES
540
root 9.11813 17.7253 45.8795 -169.487 65.0508 -168.348
lowerback 7.40979 -0.580729 -0.359697
upperback 2.5884 -0.730321 -1.05496
thorax -1.49154 -0.324338 -0.822128
lowerneck -0.214174 -1.49005 2.38138
upperneck 25.2391 -1.08802 0.537131
head 7.78527 0.223247 -0.235941
rclavicle -2.94201e-014 7.95139e-016
rhumerus -37.3041 -14.5434 -74.4316
rradius 20.9668
rwrist 22.3225
rhand -12.7524 18.8837
rfingers 7.12502
rthumb 13.3318 -10.6698
lclavicle -2.94201e-014 7.95139e-016
lhumerus -18.075 -4.64174 89.2754
lradius 34.9023
lwrist 6.66139
lhand -28.4538 16.7487
lfingers 7.12502
lthumb -1.82424 46.7207
rfemur -24.4416 31.2105 13.4646
rtibia 28.8773
rfoot -10.298 -9.97666
rtoes -16.5347
lfemur 0.784011 -9.53997 -29.5591
ltibia 22.9647
lfoot -9.79447 -10.8996
ltoes 9.18027
541
root 9.1943 17.7307 45.8342 -169.243 64.2683 -168.126
lowerback 7.50869 -0.601588 -0.222406
upperback 2.59345 -0.744852 -0.818866
thorax -1.54005 -0.332228 -0.654107
lowerneck -0.00132068 -1.49496 2.24009
upperneck 25.1115 -1.01997 0.326048
head 7.70373 0.225831 -0.276251
rclavicle 1.74931e-014 1.03368e-014
rhumerus -36.8844 -13.784 -74.5369
rradius 20.9551
rwrist 21.6378
rhand -16.1826 16.0507
rfingers 7.12502
rthumb 10.024 -13.6905
lclavicle 1.74931e-014 1.03368e-014
lhumerus -18.1094 -4.3217 89.6561
lradius 35.2164
lwrist 6.34696
lhand -27.8112 16.5938
lfingers 7.12502
lthumb -1.2036 46.5702
rfemur -24.6517 29.9319 14.042
rtibia 27.5334
rfoot -10.8591 -6.55932
rtoes -18.6514
lfemur 0.95726 -7.83647 -28.8158
ltibia 22.7972
lfoot -9.44125 -13.6312
ltoes 12.3225
542
root 9.2731 17.7338 45.797 -169.414 63.5945 -168.366
lowerback 7.6455 -0.437612 -0.239409
upperback 2.59538 -0.526777 -0.830014
thorax -1.61154 -0.222397 -0.674252
lowerneck 0.0682339 -1.71376 2.50985
upperneck 25.093 -1.29656 0.190349
head 7.67938 0.11318 -0.383675
rclavicle -9.34288e-015 2.3059e-014
rhumerus -36.6816 -13.9961 -74.523
rradius 20.9543
rwrist 21.4895
rhand -16.6956 15.3661
rfingers 7.12502
rthumb 9.52904 -14.3984
lclavicle -9.34288e-015 2.3059e-014
lhumerus -18.0846 -5.304 89.9178
lradius 35.3988
lwrist 6.74006
lhand -27.1411 17.0228
lfingers 7.12502
lthumb -0.556379 47.0018
rfemur -24.7584 28.1169 14.6396
rtibia 26.2346
rfoot -10.9063 -2.98735
rtoes -19.5415
lfemur 1.23387 -7.01824 -28.4861
ltibia 22.6102
lfoot -8.96137 -15.2785
ltoes 14.7998
543
root 9.34866 17.7323 45.7622 -169.773 63.0493 -168.736
lowerback 7.91176 -0.355184 -0.449861
upperback 2.5777 -0.431409 -0.743968
thorax -1.77385 -0.174376 -0.47471
lowerneck 0.21868 -1.76337 2.52116
upperneck 25.0593 -1.30645 0.0154102
head 7.63925 0.0999205 -0.442518
rclavicle -7.15625e-015 -3.97569e-015
rhumerus -36.4191 -14.4471 -74.018
rradius 20.7906
rwrist 22.8607
rhand -16.2558 15.9796
rfingers 7.12502
rthumb 9.95334 -13.7651
lclavicle -7.15625e-015 -3.97569e-015
lhumerus -18.1384 -5.4226 90.1423
lradius 35.5441
lwrist 6.85031
lhand -27.1985 17.4739
lfingers 7.12502
lthumb -0.611797 47.4528
rfemur -24.7248 25.8712 15.3751
rtibia 25.0083
rfoot -10.8531 0.910246
rtoes -19.0947
lfemur 1.60801 -6.93409 -28.5011
ltibia 22.4977
lfoot -8.8102 -15.6609
ltoes 14.53
